<?xml version="1.0" standalone="no"?>
<!DOCTYPE svg PUBLIC "-//W3C//DTD SVG 20010904//EN"
 "http://www.w3.org/TR/2001/REC-SVG-20010904/DTD/svg10.dtd">
<svg version="1.0" xmlns="http://www.w3.org/2000/svg"
 width="260.000000pt" height="260.000000pt" viewBox="0 0 260.000000 260.000000"
 preserveAspectRatio="xMidYMid meet">
<metadata>
Created by potrace 1.11, written by Peter Selinger 2001-2013
</metadata>
<g transform="translate(0.000000,260.000000) scale(0.100000,-0.100000)"
fill="#000000" stroke="none">
<path d="M365 2586 c-150 -37 -273 -147 -341 -306 -18 -43 -19 -83 -22 -940
-3 -938 -2 -966 41 -1060 58 -127 198 -243 325 -268 20 -4 446 -7 947 -7 l910
0 60 23 c67 25 155 87 202 142 42 48 89 144 103 210 8 40 10 297 8 955 -3 866
-4 902 -23 945 -60 139 -148 230 -275 286 l-65 29 -910 2 c-693 1 -922 -1
-960 -11z"/>
</g>
</svg>
