<?xml version="1.0" standalone="no"?>
<!DOCTYPE svg PUBLIC "-//W3C//DTD SVG 20010904//EN"
 "http://www.w3.org/TR/2001/REC-SVG-20010904/DTD/svg10.dtd">
<svg version="1.0" xmlns="http://www.w3.org/2000/svg"
 width="700.000000pt" height="700.000000pt" viewBox="0 0 700.000000 700.000000"
 preserveAspectRatio="xMidYMid meet">
<metadata>
Created by potrace 1.11, written by Peter Selinger 2001-2013
</metadata>
<g transform="translate(0.000000,700.000000) scale(0.100000,-0.100000)"
fill="#000000" stroke="none">
<path d="M1215 6993 c-518 -48 -977 -413 -1143 -910 -72 -215 -67 -7 -67
-2578 0 -2148 1 -2316 17 -2401 92 -482 436 -879 897 -1033 208 -70 13 -65
2511 -69 1676 -2 2283 0 2365 9 313 33 589 164 809 385 221 220 352 496 385
809 9 82 11 689 9 2365 -4 2498 1 2303 -69 2511 -133 397 -451 715 -848 848
-209 70 -8 65 -2541 66 -1257 1 -2303 0 -2325 -2z m3005 -1699 c48 -8 91 -18
97 -22 7 -5 -17 -172 -73 -516 -46 -279 -85 -510 -87 -512 -2 -2 -48 5 -103
17 -127 27 -302 30 -392 6 -123 -33 -220 -95 -303 -194 -79 -93 -184 -340
-239 -560 -19 -79 -20 -108 -20 -977 l0 -896 -535 0 -535 0 2 1788 3 1787 462
3 462 2 6 -32 c3 -18 21 -161 40 -318 45 -365 41 -350 70 -275 150 399 445
668 782 714 86 12 252 5 363 -15z m505 -2565 c200 -43 401 -244 450 -450 32
-137 10 -305 -57 -432 -47 -89 -174 -213 -261 -255 -229 -110 -508 -71 -688
96 -77 71 -127 148 -162 252 -25 73 -30 100 -30 190 -1 183 47 303 168 426 80
81 122 110 219 148 110 44 231 52 361 25z"/>
</g>
</svg>
