<?xml version="1.0" standalone="no"?>
<!DOCTYPE svg PUBLIC "-//W3C//DTD SVG 20010904//EN"
 "http://www.w3.org/TR/2001/REC-SVG-20010904/DTD/svg10.dtd">
<svg version="1.0" xmlns="http://www.w3.org/2000/svg"
 width="700.000000pt" height="700.000000pt" viewBox="0 0 700.000000 700.000000"
 preserveAspectRatio="xMidYMid meet">
<metadata>
Created by potrace 1.11, written by Peter Selinger 2001-2013
</metadata>
<g transform="translate(0.000000,700.000000) scale(0.100000,-0.100000)"
fill="#000000" stroke="none">
<path d="M878 6980 c-115 -24 -176 -44 -275 -91 -310 -148 -535 -457 -592
-814 -6 -37 -10 -1018 -10 -2575 0 -2744 -3 -2587 59 -2770 127 -381 465 -661
867 -719 83 -12 5131 -9 5183 3 184 43 326 105 448 195 232 172 375 405 427
696 12 68 14 457 14 2595 0 2409 -1 2519 -18 2615 -52 278 -195 507 -421 674
-127 94 -259 152 -435 190 -88 19 -148 20 -2625 20 -2419 0 -2539 -1 -2622
-19z"/>
</g>
</svg>
