<svg id="Layer_1" data-name="Layer 1" xmlns="http://www.w3.org/2000/svg" viewBox="0 0 2508.63 719.22"><defs><style>.cls-1{fill:#fff;}</style></defs><title>cetac-white</title><path class="cls-1" d="M2001.87,561l-2.81,159.62-119.08-3V619.33c-7,6.48-13.21,12.13-19.33,17.85-20.7,19.32-41.07,39-62.17,57.88-12.71,11.37-28.58,17.46-44.72,22.39-26.56,8.1-53.69,10.44-81.37,8.15-28.49-2.36-56.05-8.44-81-22.41-12.94-7.24-24.65-17-36-26.72-14.27-12.24-27.59-25.57-41.26-38.5a29,29,0,0,1-3.23-4.45l-2.4-.64c-.89,1.63-1.46,3.58-2.72,4.85q-22.34,22.56-44.89,44.9a32.56,32.56,0,0,1-7.55,5.57c-19.7,10.42-39.13,21.45-59.38,30.68-10.07,4.59-21.55,6.83-32.64,8.31-45.72,6.1-88.86-2.69-129.83-23.62-9.35-4.78-16.27-12-23.32-19.26-25.4-26.19-50.82-52.35-76-78.74a38.09,38.09,0,0,1-7.19-11.79c-6-14.62-11.54-29.42-17.28-44.14-.72-1.86-1.53-3.68-2.54-6.08-1.57,1.3-3,2.39-4.27,3.56Q1020.44,619.45,940,691.74c-16.44,14.68-36.41,23.25-57.39,29.07-49.55,13.75-98.61,12.86-146.4-7.39a238.55,238.55,0,0,1-35.1-18.89c-6.61-4.22-11.75-10.76-17.46-16.36q-54.78-53.72-109.52-107.49c-5.23-5.13-10.64-10.09-15.69-15.4-3.09-3.25-5.34-3.27-8.64-.12-20.36,19.44-40.87,38.72-61.36,58C461,639,434,665.21,406,690.45c-16,14.49-35.74,23.13-56.43,28.84-54.4,15-107.8,10.94-159.32-11.52a144.25,144.25,0,0,1-44.82-30.3Q83.08,614.72,20.31,552.32a11,11,0,0,1-3.68-8.67c.62-46.47,1.06-93,1.58-139.43.29-25.82,1.88-51.69.71-77.44C17,285,31.93,249.55,57.1,217.63c26.1-33.09,58.09-58.83,98.46-72.2,18.78-6.22,38.22-10.28,58.57-10.23,41.29.09,82.58-1.47,123.87-2.08,33.95-.51,66.09,7.82,97.18,20.81,2.91,1.22,5.67,2.83,8.64,3.87,18.36,6.45,29.48,21.7,42.33,34.79q18.9,19.25,37.2,39.08a58.6,58.6,0,0,1,8.59,13.22c6.64,13.1,12.51,26.46,13.44,41.49.25,4-1,4.91-4.58,5q-31,.45-61.95,1.13-27.72.6-55.43,1.41a7.25,7.25,0,0,1-7-3.47A90.48,90.48,0,0,0,372,256.24a29.55,29.55,0,0,0-10.16-1.85q-55,.57-109.93,1.48c-17.32.26-34.63.63-51.95,1a10.68,10.68,0,0,0-4.84.86c-18.13,10.23-35,22-46.8,39.67a56.26,56.26,0,0,0-9.92,32.39c.21,54.5.12,109,0,163.5a10,10,0,0,0,3.52,8.17q52.74,48.57,105.22,97.43c5.24,4.89,11.67,6,18,7.84,12.25,3.57,24.7,5.32,37.4,2.71a43.13,43.13,0,0,0,8.39-2.94c21-9.17,37-25.16,53.93-39.9q92.69-80.75,185.4-161.49a11.29,11.29,0,0,0,4.36-9.28q.86-49.45,2.3-98.9c.45-14.59,5.73-28.1,12.18-40.85,30.89-61,79.21-100.8,145.63-118A92.37,92.37,0,0,1,736,135.6c44.79-.87,89.61-1,134.39-2.33,23.6-.7,46.91-.44,69.57,6.79,59.63,19,102.57,57.85,133.18,111.76,10.6,18.67,13.2,38.54,13,59.14-.14,14.12-1.39,28.25-2.57,42.34a12.68,12.68,0,0,1-3.83,7.59q-63.84,57.91-127.94,115.54a5.7,5.7,0,0,0-.76.64c-9,11.66-20.81,13.78-35.06,13.54-50-.82-100-.32-150-.32h-5.77l-1.56-2.18c1.47-.73,3.21-1.15,4.36-2.22q95.85-88.8,191.68-177.62c2.87-2.65,3.31-4.82,1.81-8.11-10.72-23.51-29.39-37.76-53.45-45.4-4-1.26-8.6-.49-12.93-.44q-43.72.51-87.44,1.15c-22.64.36-45.29.89-67.93,1.41a11.79,11.79,0,0,0-5.28,1.09c-23.17,12.87-41.92,30.12-52.22,55.05a50,50,0,0,0-3.49,18.4c-.27,53-.12,106-.23,159a10.76,10.76,0,0,0,3.64,8.67q53,50.13,105.82,100.46a39.26,39.26,0,0,0,25.69,10.73c25.81,1.33,48.72-5.94,68-24q92.44-87,185.18-173.64c13.49-12.65,26.79-25.48,40.34-38.07,3.06-2.85,4.18-5.82,4.18-10q-.17-173.25-.09-346.49V10.84h116c.12,1.64.31,3.09.31,4.54q.19,42.24.35,84.49.49,107.22,1,214.45.45,89.23,1,178.45c.08,13.83.18,27.66.41,41.48,0,1.69.38,3.9,1.47,5,18.77,18.18,37.17,36.8,56.74,54.08,13.57,12,29.93,19.43,48.65,19.09a63.65,63.65,0,0,0,33-9.9c32.7-20.3,61-46.23,91-70.09,5.35-4.26,6.42-10.26,6.31-16.62a16.07,16.07,0,0,0-.72-5.43c-4.84-12.49-.25-24.61,1.41-36.79,1.84-13.52,4.2-27,6.55-40.41a52.39,52.39,0,0,1,3.22-10.38c1.36-3.38,3.58-6.44,4.8-9.87,8.16-23,25.41-39,41.85-55.7q37-37.6,73.55-75.58a12.13,12.13,0,0,1,9.58-4.06q77,.19,154,.08h6.79c-6.66,6.93-12.22,12.76-17.83,18.55Q1668.26,376.06,1590.93,456c-11.76,12.18-14.18,27.55-12.78,43.64a124.66,124.66,0,0,0,3.93,20.56c3.52,13.47,10.16,24.85,21,34.2,13.62,11.71,26.56,24.3,39.06,37.21,8.44,8.71,18.3,13.42,29.95,15.37,19.56,3.27,38.25.88,55.23-9.59,6.13-3.78,11.42-9.14,16.54-14.32q43.74-44.26,87.2-88.79,23.27-23.73,46.44-47.56a8.24,8.24,0,0,0,2.25-5.14q.17-91,.07-182c0-.65-.17-1.3-.41-3.08-6,0-12.12,0-18.22,0-23.33,0-46.66,0-70-.17q-73-.43-145.95-1c-41.32-.3-82.63-.73-123.95-.89-4.43,0-5.56-1.33-5.72-5.63-1.62-42.72,15.06-75.72,52-97.73a126.34,126.34,0,0,1,56.76-17.25c21.7-1.41,43.55-.43,65.34-.3q72.72.46,145.44,1.13c25.48.22,51-.16,76.42,1.26,8.89.49,18.17,4.36,26.17,8.71,34.49,18.76,55.54,47.62,61,86.76,1.42,10.12,0,20.62.16,30.94.08,4.9.81,9.79,1.25,14.68l1.71.35c2.3-4.88,5.08-9.6,6.82-14.68,16.26-47.42,49.58-79.54,92.31-103.17,21.1-11.67,43.77-19.11,67.41-23.68a20.11,20.11,0,0,1,3.47-.29c29.47-.49,59-.9,88.42-1.46,20.14-.38,40.34-2.13,60.4-1.07,18.15,1,36.3,4.14,54.17,7.7a165.51,165.51,0,0,1,62.5,26.37,54.17,54.17,0,0,1,7.28,6c16.79,16.68,33.82,33.13,50.06,50.34,5.35,5.67,9,13.13,12.69,20.17a158.42,158.42,0,0,1,15.44,46.88,41.93,41.93,0,0,1-5.26.79q-58.69,1.33-117.37,2.61a6.81,6.81,0,0,1-6.58-3.34A88.18,88.18,0,0,0,2353.54,258a45.88,45.88,0,0,0-17.3-3.48c-35.64.18-71.28.84-106.92,1.4-17.15.27-34.31.38-51.44,1.15a33.44,33.44,0,0,0-14.15,4c-23.39,12.88-38.49,32.81-47.4,57.68a16.35,16.35,0,0,0-.59,5.4q0,84.75-.09,169.5a9.53,9.53,0,0,0,3.35,7.76q54,49.77,107.93,99.64c7,6.47,16,8.9,25.23,9.41,24.61,1.36,46.55-6.68,64.83-22.54,66.81-58,133.14-116.47,199.66-174.77,2.57-2.25,5.21-4.41,8.58-7.25,0,6.83.09,12.57,0,18.3q-1,52.7-2,105.41c-.18,9.49-.46,19-.46,28.48a10,10,0,0,1-3.79,8.11c-46.2,41.54-92.19,83.32-138.5,124.74-14,12.53-31.3,19.62-48.93,25.14-57.57,18-114,15.29-169.13-10.15-16.45-7.6-29.71-19.51-43.45-30.81-5.52-4.54-10.83-9.39-15.89-14.43q-48.18-48-96.18-96.15a51,51,0,0,1-3.45-4.25Z" transform="translate(-16.63 -10.84)"/><path class="cls-1" d="M1242.88,253.86V133.06h249.67c.36,11.25.77,22.34,1.06,33.43.68,26.29,1.22,52.59,2,78.89.13,4.32-.73,6.1-5.64,6.06-16.82-.15-33.64.24-50.46.42q-50,.51-99.92,1-43.21.46-86.42,1C1249.91,253.89,1246.64,253.86,1242.88,253.86Z" transform="translate(-16.63 -10.84)"/></svg>