<svg xmlns="http://www.w3.org/2000/svg" viewBox="0 0 67.178 64.5">
  <defs>
    <style>
      .cls-1 {
        fill: #29977f;
      }

      .cls-2 {
        fill: none;
        stroke: #29977f;
        stroke-linecap: round;
        stroke-width: 6px;
      }
    </style>
  </defs>
  <g id="Group_20" data-name="Group 20" transform="translate(-240.5 -87)">
    <path id="Spotify_logo_without_text" class="cls-1" d="M25.5.277a25.25,25.25,0,1,0,25.251,25.25A25.251,25.251,0,0,0,25.5.277h0Zm11.58,36.418a1.573,1.573,0,0,1-2.165.522C28.99,33.6,21.526,32.775,12.737,34.783a1.574,1.574,0,0,1-.7-3.07c9.619-2.2,17.869-1.251,24.525,2.816A1.574,1.574,0,0,1,37.083,36.695Zm3.091-6.876a1.968,1.968,0,0,1-2.708.65C30.679,26.3,20.333,25.088,12.3,27.524a1.968,1.968,0,1,1-1.144-3.767c9.17-2.782,20.571-1.435,28.365,3.355a1.968,1.968,0,0,1,.648,2.706Zm.265-7.159C32.3,17.826,18.874,17.381,11.1,19.739a2.362,2.362,0,1,1-1.371-4.52c8.919-2.708,23.747-2.185,33.116,3.378a2.361,2.361,0,1,1-2.409,4.062Z" transform="translate(249.733 86.723)"/>
    <line id="Line_29" data-name="Line 29" class="cls-2" y2="21" transform="translate(269.5 127.5)"/>
    <line id="Line_31" data-name="Line 31" class="cls-2" y2="13" transform="translate(282.5 135.5)"/>
    <line id="Line_30" data-name="Line 30" class="cls-2" x1="12" transform="translate(243.5 112.5)"/>
    <line id="Line_32" data-name="Line 32" class="cls-2" y1="10" x2="7" transform="translate(296.5 100.5)"/>
  </g>
</svg>
