<?xml version="1.0" encoding="utf-8"?>
<!-- Generator: Adobe Illustrator 21.0.0, SVG Export Plug-In . SVG Version: 6.00 Build 0)  -->
<svg version="1.1" xmlns="http://www.w3.org/2000/svg" xmlns:xlink="http://www.w3.org/1999/xlink" x="0px" y="0px"
	 viewBox="0 0 183.3 204.4" style="enable-background:new 0 0 183.3 204.4;" xml:space="preserve">
<style type="text/css">
	.st0{display:none;}
	.st1{fill:#FFFFFF;}
</style>
<g id="Layer_2" class="st0">
</g>
<g id="Layer_1">
	<g>
		<path class="st1" d="M182.9,145c-7.4,7.1-15,14.2-22.4,21.2c-8.7,8.2-17.3,16.4-26,24.5c-5.7,5.3-12.7,8.5-20.1,10.6
			c-18.9,5.3-37.5,3.8-55.3-4.2c-5.4-2.4-10.5-5.8-14.8-10.1c-14.4-14.5-28.8-28.8-43.2-43.3c-0.6-0.6-1.1-1.7-1.1-2.5
			c0.1-16.1,0.3-32.2,0.5-48.2c0.1-8.6,0.7-17.3,0.2-25.9c-0.9-17.7,6.6-31.7,18.2-44C27,14.6,36.4,7.8,47.7,4.2
			c6.4-2,13-3.5,20-3.5c14.1,0,28.1-0.5,42.2-0.7c13-0.2,25.1,3.3,36.9,8.4c6.1,2.6,10,7.5,14.4,11.9c4.3,4.4,8.6,8.9,12.8,13.4
			c1.2,1.4,2.2,3,3.1,4.7c2.2,4.4,4.2,9,4.6,14.1c0.1,1.4-0.3,1.8-1.7,1.8c-9,0.1-18.1,0.3-27.1,0.5c-4.4,0.1-8.8,0.3-13.2,0.3
			c-0.7,0-1.8-0.5-2.2-1.1c-4-5.6-9.2-9.5-15.6-11.9c-0.9-0.3-2-0.5-3-0.5c-12.7,0.1-25.4,0.3-38.1,0.5c-5.9,0.1-11.8,0.2-17.7,0.3
			c-0.6,0-1.3,0-1.8,0.3c-6.3,3.6-12.1,7.7-16.1,13.8c-2.1,3.3-3.3,6.8-3.3,10.8c0.1,18.7,0,37.4,0,56.1c0,1.2,0.3,2.1,1.3,3
			c12.3,11.3,24.4,22.6,36.7,33.8c1.4,1.3,3.7,1.7,5.6,2.3c4.1,1.2,8.4,1.8,12.7,0.9c1-0.2,2.1-0.6,3-1.1
			c7.2-3.1,12.6-8.6,18.4-13.6c21.3-18.5,42.5-37.1,63.8-55.6"/>
	</g>
</g>
</svg>
